# xmcd CD database file
#
# Track frame offsets:
#	150
#	21585
#	39731
#	56130
#	72360
#	92140
#	111205
#	131617
#	149645
#	168921
#	189305
#	210402
#
# Disc length: 3062 seconds
#
# Revision: 0
# Processed by: cddbd v1.5.2PL0 Copyright (c) Steve Scherf et al.
# Submitted via: CDex 1.70beta2
#
DISCID=b50bf40c
DTITLE=Rosenstolz - Die Suche geht weiter
DYEAR=2008
DGENRE=Deutsch
TTITLE0=Ich bin mein Haus
TTITLE1=Gib mir Sonne
TTITLE2=Blaue Flecken
TTITLE3=Irgendwo dazwischen
TTITLE4=Kein Lied von Liebe
TTITLE5=Wie weit ist vorbei
TTITLE6=An einem Morgen im April
TTITLE7=Unerwartet (Ein Fenster zum Himmel)
TTITLE8=Bist du dabei
TTITLE9=Herz schlägt auch im Eis
TTITLE10=Wann kommst du (Autos fahr'n an mir vorbei)
TTITLE11=Die Suche geht weiter
EXTD=YEAR: 2008
EXTT0=
EXTT1=
EXTT2=
EXTT3=
EXTT4=
EXTT5=
EXTT6=
EXTT7=
EXTT8=
EXTT9=
EXTT10=
EXTT11=
PLAYORDER=
